<svg class='connector' width="991" height="684" viewBox="0 0 991 684" fill="none" xmlns="http://www.w3.org/2000/svg">
    <path fill-rule="evenodd" clip-rule="evenodd" d="M990.215 621.431C987.864 601.174 975.392 583.892 956.555 575.171C948.272 571.205 946.537 570.946 933.604 571C920.671 571.054 918.939 571.328 910.689 575.362C899.378 580.743 889.948 589.582 884.524 599.872L880.291 607.89L797 607.89L177.819 39.7839L109.2 39.7839L107.548 30.803C87.3834 -8.57978 31.9084 -10.4815 9.00001 27.4812C-15.2322 67.716 18.3135 118.51 64.9547 112.315C80.6796 110.249 97.4282 97.9126 105.231 82.6798L109.2 75.0632L177.819 75.0632L797 643.171L881.253 646.686L884.347 653.34C886.096 656.932 890.387 662.781 893.735 666.234C923.194 696.245 972.615 685.238 986.983 645.578C989.62 638.5 990.91 628.228 990.215 621.431ZM924.839 643.171C934.059 647.932 945.777 644.416 950.141 635.598C960.983 613.819 930.245 596.748 917.798 617.466C912.501 626.289 915.886 638.541 924.839 643.171ZM37.0028 60.0312C40.1374 76.2849 62.8228 80.7236 71.2976 66.688C76.7269 57.732 73.2046 44.4132 64.2519 39.7839C50.7563 32.9069 34.2744 45.2424 37.0028 60.0312Z" fill="black"/>
    </svg>
    